# xmcd
#
# Track frame offsets: 
#        150
#        18476
#        35134
#        47845
#        66698
#        80112
#        104012
#        118231
#        132324
#        151961
#        169508
#        188265
#        202251
#
# Disc length: 3110 seconds
#
# Revision: 0
# Processed by: cddbd v1.5.2PL0 Copyright (c) Steve Scherf et al.
# Submitted via: ExactAudioCopyFreeDBPlugin 1.0
#
DISCID=c20c240d
DTITLE=Two Timer - The Big Easy
DYEAR=2018
DGENRE=Blues Rock
TTITLE0=Poetics of refusal
TTITLE1=Letter to Charlie
TTITLE2=The Jack
TTITLE3=Drinking boogie
TTITLE4=The brief song
TTITLE5=Let it go
TTITLE6=Frenchmen boogie
TTITLE7=NOLA po'boy
TTITLE8=4tornados
TTITLE9=Something's missing
TTITLE10=Everyn McHale
TTITLE11=Peaceful life
TTITLE12=The Nile
EXTD=
EXTT0=
EXTT1=
EXTT2=
EXTT3=
EXTT4=
EXTT5=
EXTT6=
EXTT7=
EXTT8=
EXTT9=
EXTT10=
EXTT11=
EXTT12=
PLAYORDER=
